<?xml version="1.0" encoding="UTF-8" standalone="no"?>
<!-- Created with Inkscape (http://www.inkscape.org/) -->

<svg
   width="512"
   height="512"
   viewBox="0 0 512 512"
   version="1.1"
   id="svg1"
   inkscape:version="1.3.2 (091e20e, 2023-11-25, custom)"
   sodipodi:docname="ito.svg"
   inkscape:export-filename="ito.png"
   inkscape:export-xdpi="96"
   inkscape:export-ydpi="96"
   xmlns:inkscape="http://www.inkscape.org/namespaces/inkscape"
   xmlns:sodipodi="http://sodipodi.sourceforge.net/DTD/sodipodi-0.dtd"
   xmlns="http://www.w3.org/2000/svg"
   xmlns:svg="http://www.w3.org/2000/svg">
  <sodipodi:namedview
     id="namedview1"
     pagecolor="#505050"
     bordercolor="#ffffff"
     borderopacity="1"
     inkscape:showpageshadow="0"
     inkscape:pageopacity="0"
     inkscape:pagecheckerboard="1"
     inkscape:deskcolor="#505050"
     inkscape:document-units="px"
     inkscape:zoom="0.70296358"
     inkscape:cx="336.43279"
     inkscape:cy="278.10829"
     inkscape:window-width="1366"
     inkscape:window-height="705"
     inkscape:window-x="-8"
     inkscape:window-y="-8"
     inkscape:window-maximized="1"
     inkscape:current-layer="layer1" />
  <defs
     id="defs1" />
  <g
     inkscape:label="Layer 1"
     inkscape:groupmode="layer"
     id="layer1">
    <rect
       style="display:inline;fill:#e6e6e6;fill-opacity:1;stroke-width:1.64112"
       id="rect3"
       width="512"
       height="512"
       x="0"
       y="0" />
    <path
       id="path26"
       style="display:inline;fill:#00112b;fill-opacity:1;stroke-width:0.86627"
       d="m 289.52734,433.48438 c -0.8834,-0.82916 -1.76819,-1.65491 -2.63281,-2.51954 -6.80443,-6.80443 -12.0392,-14.00028 -15.70312,-21.58984 -3.66393,-7.58956 -6.41218,-15.83431 -8.24414,-24.73242 -1.57026,-8.89811 -2.48634,-18.71134 -2.74805,-29.44141 -0.007,-0.31143 -0.008,-0.67105 -0.0156,-0.98437 l -63.1875,63.1875 v 41.04101 H 155.95508 L 102.40039,512 h 108.61133 z" />
    <path
       id="path24"
       style="display:inline;fill:#00112b;fill-opacity:1;stroke-width:0.86627"
       d="m 418.26172,304.75 c -0.12068,-7.8906 -0.30983,-15.13877 -0.64453,-20.99609 -0.26171,-9.42153 -1.04497,-17.27367 -2.35352,-23.55469 -1.04683,-6.54273 -2.74813,-11.90641 -5.10351,-16.09375 -2.09368,-4.44906 -4.84193,-8.506 -8.24414,-12.16992 -3.13252,-3.29739 -6.78819,-6.12923 -10.85547,-8.59571 l -88.82227,88.82227 c -0.007,2.24454 -0.0332,4.14298 -0.0332,6.5293 0,14.13229 0.13087,25.9105 0.39258,35.33203 0.52341,9.15981 1.30863,17.01001 2.35546,23.55273 1.30855,6.28102 3.00789,11.64665 5.10157,16.09571 2.22876,3.96224 4.9433,7.68219 8.10937,11.17578 z" />
    <path
       id="path22"
       style="display:inline;fill:#00112b;fill-opacity:1;stroke-width:0.86627"
       d="m 512,102.40039 -92.14453,92.14453 c 5.02419,3.46462 9.7828,7.40585 14.25,11.87305 6.80443,6.80443 12.0392,14.00223 15.70312,21.5918 3.66393,7.58956 6.28131,15.83431 7.85157,24.73242 0.62051,3.51626 1.10726,7.24273 1.52343,11.08593 L 512,211.01172 Z" />
    <path
       id="path35"
       style="font-style:normal;font-variant:normal;font-weight:normal;font-stretch:normal;font-size:392.564px;font-family:DIN;-inkscape-font-specification:DIN;display:inline;fill:#003380;fill-opacity:1;stroke-width:2.0446"
       d="M 155.95508 458.44531 L 196.99609 417.4043 L 196.99609 178.93945 L 154.59961 178.93945 L 154.59961 458.44531 L 155.95508 458.44531 z " />
    <path
       id="path34"
       style="font-style:normal;font-variant:normal;font-weight:normal;font-stretch:normal;font-size:392.564px;font-family:DIN;-inkscape-font-specification:DIN;display:inline;fill:#003380;fill-opacity:1;stroke-width:2.0446"
       d="M 318.16406 404.84766 L 289.52734 433.48438 C 298.53749 441.9412 308.51288 448.57498 319.47656 453.3418 C 331.77689 458.31427 345.38727 460.80078 360.30469 460.80078 C 375.2221 460.80078 388.83053 458.31427 401.13086 453.3418 C 413.43119 448.10762 424.42223 440.64808 434.10547 430.96484 C 440.9099 424.16041 446.14467 416.96456 449.80859 409.375 C 453.47252 401.78544 456.0899 393.54069 457.66016 384.64258 C 459.23041 375.74447 460.14649 365.93124 460.4082 355.20117 C 460.66991 344.20939 460.80078 332.03857 460.80078 318.69141 C 460.80078 305.34424 460.66991 293.30624 460.4082 282.57617 C 460.24991 275.928 459.82058 269.71039 459.18359 263.82812 L 418.26172 304.75 C 418.32976 309.1989 418.40234 313.59613 418.40234 318.69141 C 418.40234 332.8237 418.14061 344.60191 417.61719 354.02344 C 417.35548 363.18325 416.57222 371.03345 415.26367 377.57617 C 414.21684 383.85719 412.51554 389.22282 410.16016 393.67188 C 408.06648 397.85922 405.31823 401.78529 401.91602 405.44922 C 396.94354 410.6834 390.7927 414.87121 383.46484 418.01172 C 376.3987 421.15223 368.67938 422.7207 360.30469 422.7207 C 351.93 422.7207 344.07785 421.15223 336.75 418.01172 C 329.68386 414.87121 323.66388 410.6834 318.69141 405.44922 C 318.50851 405.25225 318.34393 405.04614 318.16406 404.84766 z " />
    <path
       id="path32"
       style="font-style:normal;font-variant:normal;font-weight:normal;font-stretch:normal;font-size:392.564px;font-family:DIN;-inkscape-font-specification:DIN;display:inline;fill:#003380;fill-opacity:1;stroke-width:2.0446"
       d="M 419.85547 194.54492 C 413.98908 190.49954 407.75663 187.11405 401.13086 184.43555 C 388.83053 179.20137 375.2221 176.58398 360.30469 176.58398 C 345.38727 176.58398 331.77689 179.20137 319.47656 184.43555 C 307.43795 189.40802 296.57777 196.73473 286.89453 206.41797 C 280.0901 213.2224 274.85533 220.4202 271.19141 228.00977 C 267.52748 235.59933 264.77923 243.84408 262.94727 252.74219 C 261.37701 261.6403 260.46093 271.58439 260.19922 282.57617 C 259.93751 293.30624 259.80664 305.34424 259.80664 318.69141 C 259.80664 331.6604 259.9365 343.4716 260.18359 354.2168 L 302.23828 312.16211 C 302.27501 301.11399 302.38014 291.36704 302.59766 283.75391 C 303.12107 274.33238 303.90629 266.48024 304.95312 260.19922 C 306.26167 253.65649 307.96101 248.29281 310.05469 244.10547 C 312.41007 239.65641 315.28919 235.59947 318.69141 231.93555 C 323.66388 226.70137 329.68386 222.51356 336.75 219.37305 C 344.07785 216.23254 351.93 214.66211 360.30469 214.66211 C 368.67938 214.66211 376.3987 216.23254 383.46484 219.37305 C 386.17636 220.53513 388.67153 221.8911 391.06055 223.33984 L 419.85547 194.54492 z " />
  </g>
</svg>
